HIERARCHY
ROOT mixamorig:Hips
{
	OFFSET 0.000000 201.639420 0.000000
	CHANNELS 6 Xposition Yposition Zposition Xrotation Yrotation Zrotation
	JOINT mixamorig:Spine
	{
		OFFSET 0.006200 19.524994 -2.481800
		CHANNELS 3 Xrotation Yrotation Zrotation
		JOINT mixamorig:Spine1
		{
			OFFSET -0.000900 22.835007 -2.825400
			CHANNELS 3 Xrotation Yrotation Zrotation
			JOINT mixamorig:Spine2
			{
				OFFSET -0.020600 26.552490 -3.193300
				CHANNELS 3 Xrotation Yrotation Zrotation
				JOINT mixamorig:Neck
				{
					OFFSET -0.060000 30.701813 1.352200
					CHANNELS 3 Xrotation Yrotation Zrotation
					JOINT mixamorig:Head
					{
						OFFSET -0.087200 22.547607 3.670900
						CHANNELS 3 Xrotation Yrotation Zrotation
						JOINT mixamorig:HeadTop_End
						{
							OFFSET -0.830600 40.355194 7.893500
							CHANNELS 3 Xrotation Yrotation Zrotation
							End Site
							{
								OFFSET 0.000000 30.592346 0.000000
							}
						}
						JOINT mixamorig:RightEye
						{
							OFFSET -6.302100 18.118591 16.197100
							CHANNELS 3 Xrotation Yrotation Zrotation
							End Site
							{
								OFFSET 0.000000 30.592346 0.000000
							}
						}
						JOINT mixamorig:LeftEye
						{
							OFFSET 6.741500 18.382690 16.401899
							CHANNELS 3 Xrotation Yrotation Zrotation
							End Site
							{
								OFFSET 0.000000 30.592346 0.000000
							}
						}
					}
				}
				JOINT mixamorig:LeftShoulder
				{
					OFFSET 11.924900 18.230499 1.425400
					CHANNELS 3 Xrotation Yrotation Zrotation
					JOINT mixamorig:LeftArm
					{
						OFFSET 25.435989 -0.697632 -5.229300
						CHANNELS 3 Xrotation Yrotation Zrotation
						JOINT mixamorig:LeftForeArm
						{
							OFFSET 54.684776 0.000000 0.000000
							CHANNELS 3 Xrotation Yrotation Zrotation
							JOINT mixamorig:LeftHand
							{
								OFFSET 55.098175 0.000000 0.000000
								CHANNELS 3 Xrotation Yrotation Zrotation
								JOINT mixamorig:LeftHandMiddle1
								{
									OFFSET 23.369751 0.000000 0.000000
									CHANNELS 3 Xrotation Yrotation Zrotation
									JOINT mixamorig:LeftHandMiddle2
									{
										OFFSET 6.378677 0.000000 0.000000
										CHANNELS 3 Xrotation Yrotation Zrotation
										JOINT mixamorig:LeftHandMiddle3
										{
											OFFSET 6.148331 0.000000 0.000000
											CHANNELS 3 Xrotation Yrotation Zrotation
											JOINT mixamorig:LeftHandMiddle4
											{
												OFFSET 6.582504 0.000000 0.000000
												CHANNELS 3 Xrotation Yrotation Zrotation
												End Site
												{
													OFFSET -1.168900 6.395691 1.028606
												}
											}
										}
									}
								}
								JOINT mixamorig:LeftHandThumb1
								{
									OFFSET 7.235672 -3.848206 5.434273
									CHANNELS 3 Xrotation Yrotation Zrotation
									JOINT mixamorig:LeftHandThumb2
									{
										OFFSET 6.568451 -3.792297 3.792300
										CHANNELS 3 Xrotation Yrotation Zrotation
										JOINT mixamorig:LeftHandThumb3
										{
											OFFSET 6.063080 -3.500519 3.500518
											CHANNELS 3 Xrotation Yrotation Zrotation
											JOINT mixamorig:LeftHandThumb4
											{
												OFFSET 4.793182 -2.767334 2.767349
												CHANNELS 3 Xrotation Yrotation Zrotation
												End Site
												{
													OFFSET 0.101639 6.054260 1.275483
												}
											}
										}
									}
								}
								JOINT mixamorig:LeftHandIndex1
								{
									OFFSET 23.101074 -0.309540 4.992809
									CHANNELS 3 Xrotation Yrotation Zrotation
									JOINT mixamorig:LeftHandIndex2
									{
										OFFSET 6.226883 0.000000 0.000000
										CHANNELS 3 Xrotation Yrotation Zrotation
										JOINT mixamorig:LeftHandIndex3
										{
											OFFSET 6.094330 0.000000 0.000000
											CHANNELS 3 Xrotation Yrotation Zrotation
											JOINT mixamorig:LeftHandIndex4
											{
												OFFSET 5.482605 0.000000 0.000000
												CHANNELS 3 Xrotation Yrotation Zrotation
												End Site
												{
													OFFSET -1.427902 5.233032 0.797164
												}
											}
										}
									}
								}
								JOINT mixamorig:LeftHandRing1
								{
									OFFSET 22.299240 0.021149 -3.964172
									CHANNELS 3 Xrotation Yrotation Zrotation
									JOINT mixamorig:LeftHandRing2
									{
										OFFSET 6.321869 0.000000 0.000000
										CHANNELS 3 Xrotation Yrotation Zrotation
										JOINT mixamorig:LeftHandRing3
										{
											OFFSET 5.899796 0.000000 0.000000
											CHANNELS 3 Xrotation Yrotation Zrotation
											JOINT mixamorig:LeftHandRing4
											{
												OFFSET 6.517899 0.000000 0.000000
												CHANNELS 3 Xrotation Yrotation Zrotation
												End Site
												{
													OFFSET -1.637299 6.232208 0.980890
												}
											}
										}
									}
								}
								JOINT mixamorig:LeftHandPinky1
								{
									OFFSET 20.463791 -0.302338 -8.562233
									CHANNELS 3 Xrotation Yrotation Zrotation
									JOINT mixamorig:LeftHandPinky2
									{
										OFFSET 6.908646 0.000000 0.000000
										CHANNELS 3 Xrotation Yrotation Zrotation
										JOINT mixamorig:LeftHandPinky3
										{
											OFFSET 4.622849 0.000000 0.000000
											CHANNELS 3 Xrotation Yrotation Zrotation
											JOINT mixamorig:LeftHandPinky4
											{
												OFFSET 5.216080 0.000000 0.000000
												CHANNELS 3 Xrotation Yrotation Zrotation
												End Site
												{
													OFFSET -0.606308 5.116241 0.814926
												}
											}
										}
									}
								}
							}
						}
					}
				}
				JOINT mixamorig:RightShoulder
				{
					OFFSET -12.001300 18.284088 1.348900
					CHANNELS 3 Xrotation Yrotation Zrotation
					JOINT mixamorig:RightArm
					{
						OFFSET -25.308500 -0.751312 -5.164599
						CHANNELS 3 Xrotation Yrotation Zrotation
						JOINT mixamorig:RightForeArm
						{
							OFFSET -54.684429 0.000000 0.000000
							CHANNELS 3 Xrotation Yrotation Zrotation
							JOINT mixamorig:RightHand
							{
								OFFSET -55.150291 0.000000 0.000000
								CHANNELS 3 Xrotation Yrotation Zrotation
								JOINT mixamorig:RightHandMiddle1
								{
									OFFSET -23.317566 0.000000 0.000000
									CHANNELS 3 Xrotation Yrotation Zrotation
									JOINT mixamorig:RightHandMiddle2
									{
										OFFSET -6.378403 0.000000 0.000000
										CHANNELS 3 Xrotation Yrotation Zrotation
										JOINT mixamorig:RightHandMiddle3
										{
											OFFSET -6.148193 0.000000 0.000000
											CHANNELS 3 Xrotation Yrotation Zrotation
											JOINT mixamorig:RightHandMiddle4
											{
												OFFSET -6.583389 0.000000 0.000000
												CHANNELS 3 Xrotation Yrotation Zrotation
												End Site
												{
													OFFSET 1.171692 6.395905 1.029786
												}
											}
										}
									}
								}
								JOINT mixamorig:RightHandThumb1
								{
									OFFSET -7.190521 -3.860474 5.435846
									CHANNELS 3 Xrotation Yrotation Zrotation
									JOINT mixamorig:RightHandThumb2
									{
										OFFSET -6.567429 -3.791718 3.791708
										CHANNELS 3 Xrotation Yrotation Zrotation
										JOINT mixamorig:RightHandThumb3
										{
											OFFSET -6.062469 -3.500153 3.500166
											CHANNELS 3 Xrotation Yrotation Zrotation
											JOINT mixamorig:RightHandThumb4
											{
												OFFSET -4.792618 -2.767029 2.767022
												CHANNELS 3 Xrotation Yrotation Zrotation
												End Site
												{
													OFFSET -0.100327 6.053253 1.276754
												}
											}
										}
									}
								}
								JOINT mixamorig:RightHandIndex1
								{
									OFFSET -23.048981 -0.310791 4.992554
									CHANNELS 3 Xrotation Yrotation Zrotation
									JOINT mixamorig:RightHandIndex2
									{
										OFFSET -6.227539 0.000000 0.000000
										CHANNELS 3 Xrotation Yrotation Zrotation
										JOINT mixamorig:RightHandIndex3
										{
											OFFSET -6.095047 0.000000 0.000000
											CHANNELS 3 Xrotation Yrotation Zrotation
											JOINT mixamorig:RightHandIndex4
											{
												OFFSET -5.484772 0.000000 0.000000
												CHANNELS 3 Xrotation Yrotation Zrotation
												End Site
												{
													OFFSET 1.420593 5.237305 0.797056
												}
											}
										}
									}
								}
								JOINT mixamorig:RightHandRing1
								{
									OFFSET -22.246323 0.020569 -3.963762
									CHANNELS 3 Xrotation Yrotation Zrotation
									JOINT mixamorig:RightHandRing2
									{
										OFFSET -6.322128 0.000000 0.000000
										CHANNELS 3 Xrotation Yrotation Zrotation
										JOINT mixamorig:RightHandRing3
										{
											OFFSET -5.900024 0.000000 0.000000
											CHANNELS 3 Xrotation Yrotation Zrotation
											JOINT mixamorig:RightHandRing4
											{
												OFFSET -6.518356 0.000000 0.000000
												CHANNELS 3 Xrotation Yrotation Zrotation
												End Site
												{
													OFFSET 1.636398 6.232697 0.982186
												}
											}
										}
									}
								}
								JOINT mixamorig:RightHandPinky1
								{
									OFFSET -20.411011 -0.303314 -8.561701
									CHANNELS 3 Xrotation Yrotation Zrotation
									JOINT mixamorig:RightHandPinky2
									{
										OFFSET -6.907349 0.000000 0.000000
										CHANNELS 3 Xrotation Yrotation Zrotation
										JOINT mixamorig:RightHandPinky3
										{
											OFFSET -4.623840 0.000000 0.000000
											CHANNELS 3 Xrotation Yrotation Zrotation
											JOINT mixamorig:RightHandPinky4
											{
												OFFSET -5.218353 0.000000 0.000000
												CHANNELS 3 Xrotation Yrotation Zrotation
												End Site
												{
													OFFSET 0.602097 5.118835 0.816273
												}
											}
										}
									}
								}
							}
						}
					}
				}
			}
		}
	}
	JOINT mixamorig:LeftUpLeg
	{
		OFFSET 18.168400 -13.561905 -0.039000
		CHANNELS 3 Xrotation Yrotation Zrotation
		JOINT mixamorig:LeftLeg
		{
			OFFSET 0.577358 -80.825211 -3.695000
			CHANNELS 3 Xrotation Yrotation Zrotation
			JOINT mixamorig:LeftFoot
			{
				OFFSET -0.577356 -83.370262 -6.520700
				CHANNELS 3 Xrotation Yrotation Zrotation
				JOINT mixamorig:LeftToeBase
				{
					OFFSET 0.750401 -20.798306 25.135401
					CHANNELS 3 Xrotation Yrotation Zrotation
					JOINT mixamorig:LeftToe_End
					{
						OFFSET -0.000500 0.001200 19.917799
						CHANNELS 3 Xrotation Yrotation Zrotation
						End Site
						{
							OFFSET 0.000000 19.917805 0.000000
						}
					}
				}
			}
		}
	}
	JOINT mixamorig:RightUpLeg
	{
		OFFSET -18.162500 -13.585098 -0.041000
		CHANNELS 3 Xrotation Yrotation Zrotation
		JOINT mixamorig:RightLeg
		{
			OFFSET -0.595024 -80.945297 -3.631900
			CHANNELS 3 Xrotation Yrotation Zrotation
			JOINT mixamorig:RightFoot
			{
				OFFSET 0.595024 -83.218193 -6.561200
				CHANNELS 3 Xrotation Yrotation Zrotation
				JOINT mixamorig:RightToeBase
				{
					OFFSET -0.753601 -20.807106 25.115000
					CHANNELS 3 Xrotation Yrotation Zrotation
					JOINT mixamorig:RightToe_End
					{
						OFFSET 0.000299 0.001700 19.918200
						CHANNELS 3 Xrotation Yrotation Zrotation
						End Site
						{
							OFFSET 0.000000 19.918203 0.000000
						}
					}
				}
			}
		}
	}
}
MOTION
Frames: 4
Frame Time: 0.033333
0.008122 187.220169 2.098824 17.429456 -3.280044 0.063649 14.913756 -1.554597 0.406739 5.346283 -0.845700 -1.559633 5.141024 -0.428916 -0.173901 -8.304042 0.965535 1.844257 -26.440135 5.059195 0.652089 0.000001 0.000000 -0.000000 0.000001 0.000000 -0.000000 0.000001 0.000000 -0.000000 -18.185041 -16.684737 -4.143144 -14.299585 5.321655 -58.617271 0.000019 -50.169645 0.000023 13.748589 -26.697294 34.897004 0.494813 4.564838 -22.398033 0.931159 3.170821 -32.723641 0.559409 2.500193 -25.219777 0.000001 0.000004 0.000003 11.187887 5.997095 -10.405208 5.363080 8.351991 0.904217 -5.734082 10.813578 15.939361 -0.000001 0.000002 0.000001 0.153521 -1.751678 -23.178189 0.809107 2.972616 -30.446521 0.886307 3.100022 -31.903875 -0.000000 -0.000003 -0.000001 0.700950 5.019831 -28.509046 0.453637 2.262243 -22.674505 1.672865 4.099658 -44.381326 -0.000001 -0.000001 -0.000001 0.465084 8.292824 -13.856701 0.624505 2.633847 -26.672968 2.026718 4.431541 -49.135940 -0.000002 -0.000001 -0.000000 -23.769982 22.742592 4.874674 -5.448443 5.986789 54.374989 0.000022 52.736027 -0.000016 3.172475 25.718652 -41.552733 0.187454 -3.413293 14.033685 0.448855 -1.996601 25.337239 0.480588 -2.062268 26.233708 0.000000 -0.000001 -0.000004 -1.237027 9.918016 5.832135 6.896096 -18.922464 -2.478611 -4.452437 -14.082260 -16.510189 0.000000 -0.000003 -0.000000 0.710405 3.726557 13.785605 0.253623 -1.517367 18.976137 0.289157 -1.617020 20.275710 0.000001 -0.000001 -0.000003 2.581782 -11.039338 17.202965 1.378471 -3.309277 45.218656 0.423379 -1.941916 24.596263 -0.000000 0.000002 0.000005 2.630086 -23.282672 23.282132 0.574915 -2.243407 28.743847 1.002142 -2.888116 38.265377 -0.000001 -0.000001 -0.000000 -42.954465 1.259207 18.509650 32.898562 -2.025321 2.878106 -7.305301 -5.731114 -17.546543 -5.308807 0.000001 0.000001 0.000000 0.000000 -0.000000 -43.290890 -2.206392 -10.959974 35.046930 -4.557712 -8.543575 -6.830013 -0.644975 18.942756 -3.267379 -0.000008 0.000004 -0.000000 -0.000001 -0.000000 
-1.029285 186.277512 2.461941 18.925515 -2.762153 0.026019 14.022759 -1.647567 0.594927 5.223453 -0.993636 -1.285853 5.037329 -0.610362 -0.023694 -9.345822 0.898028 1.724302 -26.464685 4.707295 0.721446 -0.000000 0.000000 -0.000000 -0.000000 0.000000 -0.000000 -0.000000 0.000000 -0.000000 -17.237581 -14.048084 -4.848841 -12.378114 5.901316 -56.963344 -0.000009 -48.873733 -0.000038 9.360920 -27.254868 37.286675 0.828658 5.421395 -21.216174 0.875227 3.082178 -31.698536 0.587948 2.559852 -25.866377 -0.000000 -0.000001 0.000003 9.241960 4.481308 -8.812201 5.419179 8.737114 0.945438 -6.394048 9.646945 15.347254 0.000001 0.000004 0.000003 0.259103 -1.656258 -22.366708 0.831647 3.010585 -30.878633 0.882047 3.093183 -31.825123 -0.000001 -0.000002 -0.000003 1.526695 6.560281 -27.992103 0.462066 2.282323 -22.887126 1.400969 3.802706 -40.437080 0.000001 -0.000001 0.000002 0.490669 11.786936 -15.906855 0.571414 2.525548 -25.493881 1.800933 4.226238 -46.145130 0.000000 0.000000 0.000001 -21.736522 20.441950 5.091228 -5.993813 6.449306 53.409914 0.000007 52.033522 -0.000004 3.700669 26.708751 -36.780405 0.167475 -3.330254 12.984206 0.382211 -1.849397 23.351322 0.413541 -1.920295 24.304154 -0.000003 -0.000002 0.000001 -2.296936 9.801966 5.411312 6.848427 -18.520953 -2.447170 -4.613321 -12.631193 -16.214767 0.000000 -0.000003 0.000002 0.689267 3.738893 13.230123 0.213208 -1.394368 17.385623 0.248264 -1.501703 18.772809 0.000001 0.000001 -0.000003 2.368024 -10.718506 16.375633 1.163217 -3.081124 41.358206 0.352961 -1.780150 22.427867 0.000000 -0.000000 0.000001 1.948743 -22.226761 21.812894 0.497568 -2.096341 26.701284 0.849496 -2.683544 35.125621 0.000001 -0.000002 0.000001 -45.046983 0.437823 18.636444 33.961838 -2.214319 2.870138 -7.730301 -5.638190 -17.919230 -5.308804 -0.000002 -0.000000 -0.000000 -0.000000 -0.000000 -45.611932 -1.690351 -10.702013 37.262145 -5.565817 -8.445221 -8.040191 -0.875877 18.948715 -3.267374 -0.000000 0.000003 -0.000000 -0.000000 -0.000000 
-2.047859 184.959564 2.592636 20.690994 -1.883727 -0.031311 13.095367 -1.852142 0.757563 5.154418 -1.233045 -1.012436 4.990780 -0.887303 0.111100 -10.633933 0.790447 1.776940 -26.486198 4.362938 0.921490 -0.000000 -0.000000 0.000000 -0.000000 -0.000000 0.000000 -0.000000 -0.000000 0.000000 -16.121579 -11.248601 -5.671364 -10.491874 6.931959 -55.852062 0.000028 -46.978803 0.000042 3.600366 -28.383087 39.168157 1.151532 6.370456 -19.940326 0.810597 2.975128 -30.475167 0.613692 2.612245 -26.436997 -0.000001 -0.000001 -0.000004 7.132892 2.774155 -7.107356 5.481523 9.167028 0.991059 -7.085710 8.549023 14.564759 -0.000001 -0.000000 -0.000000 0.376165 -1.476607 -21.467430 0.852807 3.045629 -31.278933 0.872067 3.077076 -31.639659 0.000001 0.000003 -0.000003 2.386848 8.232575 -27.419371 0.467430 2.294981 -23.021554 1.119239 3.445544 -35.982287 -0.000001 0.000002 0.000003 0.856253 15.499861 -18.107419 0.512126 2.397362 -24.113419 1.556128 3.977196 -42.723769 -0.000001 0.000000 -0.000001 -19.506616 18.025892 5.705128 -6.305049 6.683717 52.804756 0.000005 51.509807 -0.000010 3.635647 28.580998 -31.860182 0.147903 -3.241590 11.868681 0.319978 -1.698093 21.341300 0.347879 -1.767785 22.263466 -0.000001 0.000001 -0.000006 -3.454094 9.708230 5.140834 6.795065 -18.072862 -2.411755 -4.813868 -10.903093 -15.859308 0.000000 0.000001 0.000001 0.646925 3.819647 12.787240 0.176887 -1.272605 15.825091 0.208453 -1.379093 17.189235 0.000001 -0.000000 -0.000001 2.184593 -10.412897 15.671444 0.949298 -2.819934 37.204167 0.286141 -1.608825 20.168685 -0.000001 -0.000000 0.000001 1.328330 -21.127498 20.424989 0.420285 -1.935152 24.504396 0.695824 -2.450805 31.695705 -0.000004 0.000001 0.000000 -48.078501 -0.680883 18.541008 35.860617 -2.649027 2.866632 -8.008786 -5.564340 -18.146739 -5.820721 0.000000 -0.000002 -0.000000 -0.000000 -0.000000 -48.474088 -0.979539 -10.557136 39.997147 -7.000093 -8.352453 -9.412693 -1.134199 19.156107 -3.267372 -0.000006 -0.000004 -0.000000 0.000001 0.000000 
-2.713979 182.750137 2.632713 22.659040 -0.970948 -0.099050 12.190432 -1.962435 0.947667 5.137917 -1.426915 -0.721216 4.999097 -1.117792 0.253181 -11.634992 0.658449 1.539025 -28.079372 3.542627 1.099313 -0.000001 0.000000 0.000000 -0.000001 0.000000 0.000000 -0.000001 0.000000 0.000000 -14.898809 -8.289842 -7.034396 -8.774131 7.813231 -54.875919 -0.000001 -44.531795 0.000001 -1.716029 -28.470556 40.283356 1.399959 7.275904 -18.477031 0.733363 2.839999 -28.953008 0.627522 2.639856 -26.738749 0.000002 -0.000001 0.000000 4.943163 0.921789 -5.385170 5.547886 9.626791 1.039360 -7.798971 7.537535 13.623291 -0.000002 0.000002 0.000001 0.459285 -1.278951 -20.365073 0.855228 3.049595 -31.324467 0.844320 3.031672 -31.119144 -0.000001 -0.000001 0.000001 3.151976 9.847667 -26.591340 0.463336 2.285343 -22.919239 0.851119 3.042887 -31.247545 0.000001 -0.000001 -0.000000 1.531840 18.983433 -20.127898 0.447143 2.246675 -22.509565 1.302062 3.683774 -38.922134 0.000000 -0.000002 -0.000001 -17.121268 15.487263 6.811190 -6.278798 6.816633 52.423276 -0.000014 50.757772 0.000008 2.776806 31.172246 -27.050735 0.129551 -3.149819 10.718729 0.263803 -1.546706 19.357326 0.286398 -1.609497 20.177275 -0.000001 -0.000001 -0.000004 -4.675044 9.642148 5.012199 6.737840 -17.593710 -2.373491 -5.051493 -8.958153 -15.453853 0.000003 -0.000002 0.000001 0.576060 3.970550 12.457709 0.145105 -1.154630 14.324464 0.171347 -1.252995 15.574838 0.000004 -0.000001 0.000002 2.033071 -10.135065 15.097527 0.747583 -2.532660 32.886203 0.225350 -1.432566 17.878053 0.000003 -0.000001 0.000001 0.821241 -20.024253 19.144207 0.346838 -1.765278 22.230247 0.549641 -2.196756 28.091813 0.000001 0.000001 0.000000 -52.525791 -2.276623 18.225947 39.925389 -3.135375 2.860198 -8.573340 -5.446991 -18.136799 -7.198944 -0.000001 -0.000005 0.000000 0.000000 -0.000000 -52.170692 0.004022 -10.537736 43.889122 -8.511842 -8.309035 -11.217748 -1.494727 19.709757 -3.267383 -0.000006 0.000007 -0.000000 -0.000001 -0.000000 
